<svg width="187" height="41" viewBox="0 0 187 41" fill="none" xmlns="http://www.w3.org/2000/svg">
<path d="M17.7911 40.8052C11.9877 40.8052 7.49003 38.774 4.29815 34.7117C1.43272 31.1208 0 26.4055 0 20.5658C0 13.638 1.92238 8.32427 5.76714 4.62459C8.95902 1.54153 13.0395 0 18.0087 0C22.724 0 26.6413 1.37831 29.7606 4.13493C32.4084 6.52884 33.9318 9.48495 34.3308 13.0033H30.0327C29.5249 9.84766 28.0559 7.43562 25.6257 5.76714C23.5582 4.31629 21.0192 3.59086 18.0087 3.59086C13.6199 3.59086 10.1922 5.22307 7.72579 8.48749C5.47697 11.4617 4.35256 15.4879 4.35256 20.5658C4.35256 26.0791 5.78528 30.341 8.65071 33.3515C11.0446 35.8905 14.1095 37.16 17.8455 37.16C21.4363 37.16 24.3743 36.0537 26.6594 33.8411C28.6181 31.9188 29.7425 29.5067 30.0327 26.605L34.3308 26.605C33.9681 30.8488 32.1364 34.3308 28.8357 37.0512C25.7889 39.5539 22.1074 40.8052 17.7911 40.8052Z" fill="white"/>
<path d="M44.1041 39.9891H40.0236L40.0236 11.6975H44.1041L44.1041 39.9891ZM44.3761 5.87595L39.7515 5.87595V0.816104L44.3761 0.816104V5.87595Z" fill="white"/>
<path d="M68.3041 32.4266C68.3041 30.8669 67.6875 29.6881 66.4543 28.8901C65.2211 28.0559 62.9178 27.3123 59.5446 26.6594C56.2077 25.9703 53.7956 24.9365 52.3085 23.5582C50.9664 22.2887 50.2954 20.6565 50.2954 18.6616C50.2954 16.1589 51.311 14.2002 53.3422 12.7856C55.2283 11.5161 57.7673 10.8814 60.9592 10.8814C64.2236 10.8814 66.8896 11.6975 68.957 13.3297C70.7706 14.7443 71.8769 16.6123 72.2758 18.9336H68.1409C67.8507 17.374 66.9984 16.1589 65.5838 15.2884C64.3143 14.4904 62.7365 14.0914 60.8504 14.0914C58.6016 14.0914 56.9149 14.5629 55.7905 15.506C54.8837 16.2314 54.4304 17.1563 54.4304 18.2807C54.4304 19.6591 54.9382 20.7109 55.9538 21.4363C57.0056 22.1618 58.9099 22.7965 61.6665 23.3406C65.6201 24.1386 68.3948 25.2086 69.9908 26.5506C71.623 27.8926 72.4391 29.7606 72.4391 32.1545C72.4391 34.8386 71.2965 36.9786 69.0114 38.5745C66.9802 40.0617 64.3143 40.8052 61.0136 40.8052C57.3865 40.8052 54.5029 39.9166 52.3629 38.1393C50.5493 36.6159 49.5156 34.6391 49.2617 32.2089H53.3966C53.9407 35.7635 56.4978 37.5408 61.068 37.5408C63.4982 37.5408 65.3662 36.9786 66.6719 35.8542C67.7601 34.9111 68.3041 33.7686 68.3041 32.4266Z" fill="white"/>
<path d="M97.298 31.284L101.651 31.284C101.215 34.2583 99.8007 36.634 97.4068 38.4113C95.2305 40.0073 92.6371 40.8052 89.6266 40.8052C85.5642 40.8052 82.336 39.3725 79.9421 36.5071C77.7659 33.8955 76.6777 30.4135 76.6777 26.0609C76.6777 20.983 78.056 17.0657 80.8126 14.309C83.0977 12.0239 86.0357 10.8814 89.6266 10.8814C92.9998 10.8814 95.7746 11.7882 97.9508 13.6017C99.8732 15.1977 101.052 17.2651 101.487 19.8041L97.0259 19.8041C96.6632 17.9543 95.7564 16.5397 94.3056 15.5604C93.0361 14.7262 91.5127 14.309 89.7354 14.309C86.9062 14.309 84.7118 15.4153 83.1521 17.6279C81.665 19.6953 80.9215 22.5608 80.9215 26.2242C80.9215 30.1052 81.9008 33.0432 83.8594 35.0381C85.3828 36.5978 87.3415 37.3776 89.7354 37.3776C91.8754 37.3776 93.6345 36.761 95.0129 35.5278C96.2461 34.4396 97.0078 33.025 97.298 31.284Z" fill="white"/>
<path d="M110.077 25.8433C110.077 29.7969 111.092 32.8255 113.124 34.9293C114.756 36.634 116.86 37.4864 119.435 37.4864C122.409 37.4864 124.712 36.362 126.344 34.1132C127.868 32.082 128.63 29.3254 128.63 25.8433C128.63 21.8172 127.65 18.7704 125.692 16.7029C124.059 15.0345 121.956 14.2002 119.38 14.2002C116.406 14.2002 114.085 15.3065 112.416 17.519C110.857 19.5865 110.077 22.3613 110.077 25.8433ZM105.887 25.8433C105.887 20.6928 107.356 16.7755 110.294 14.0914C112.688 11.9514 115.717 10.8814 119.38 10.8814C123.66 10.8814 127.015 12.296 129.446 15.1251C131.695 17.7729 132.819 21.3457 132.819 25.8433C132.819 30.9576 131.386 34.8567 128.521 37.5408C126.163 39.7171 123.116 40.8052 119.38 40.8052C115.1 40.8052 111.727 39.3544 109.261 36.4527C107.012 33.8049 105.887 30.2684 105.887 25.8433Z" fill="white"/>
<circle cx="3.4989" cy="3.4989" r="3.4989" transform="matrix(1 0 0 -1 180.002 40.0207)" fill="white"/>
<path fill-rule="evenodd" clip-rule="evenodd" d="M149.128 1.44441V25.1647C149.128 33.6904 156.04 40.6018 164.565 40.6018C173.091 40.6018 180.002 33.6904 180.002 25.1647V1.44441L172.142 1.44441V25.1647C172.142 29.3493 168.75 32.7416 164.565 32.7416C160.381 32.7416 156.989 29.3493 156.989 25.1647V1.44441L149.128 1.44441Z" fill="white"/>
</svg>
